<svg width="93" height="93" viewBox="0 0 93 93" fill="none" xmlns="http://www.w3.org/2000/svg">
<path d="M74.5109 18.739V16.1452H0V42.227H74.5109V39.6332L93 34.7116V23.6609L74.5109 18.739ZM8.09574 36.702H5.52497V21.6701H8.09574V36.702ZM60.8904 36.702H13.6207V21.6701H60.8902V36.702H60.8904ZM68.986 36.702H66.4152V21.6701H68.986V36.702ZM87.4752 30.4648L74.5111 33.9158V24.4565L87.4752 27.9075V30.4648Z" fill="#22D3EE"/>
<path d="M18.4891 50.7732V53.3672L0 58.2888V69.3393L18.4891 74.261V76.8548H93V50.7732H18.4891ZM18.4891 68.5437L5.52497 65.0925V62.5354L18.4891 59.0844V68.5437ZM26.5848 71.33H24.014V56.2982H26.5848V71.33ZM79.3795 71.33H32.1098V56.2982H79.3793V71.33H79.3795ZM87.4752 71.33H84.9044V56.2982H87.4752V71.33Z" fill="#22D3EE"/>
</svg>
